<?xml version="1.0" encoding="UTF-8"?>
<svg xmlns="http://www.w3.org/2000/svg" xmlns:xlink="http://www.w3.org/1999/xlink" width="353.8pt" height="212.2pt" viewBox="0 0 353.8 212.2" version="1.1">
<defs>
<clipPath id="clip1">
  <path d="M 0 0 L 353.800781 0 L 353.800781 212.199219 L 0 212.199219 Z M 0 0 "/>
</clipPath>
</defs>
<g id="surface1">
<path style=" stroke:none;fill-rule:evenodd;fill:rgb(100%,100%,100%);fill-opacity:1;" d="M 351.546875 2.050781 L 44.855469 2.050781 C 44.855469 2.050781 21.523438 4.019531 18.621094 28.285156 C 15.71875 52.550781 2.332031 209.25 2.332031 209.25 L 311.804688 210.042969 C 311.804688 210.042969 332.671875 209.648438 335.035156 186.8125 C 337.398438 163.976563 351.546875 2.050781 351.546875 2.050781 Z M 351.546875 2.050781 "/>
<g clip-path="url(#clip1)" clip-rule="nonzero">
<path style="fill:none;stroke-width:42.52;stroke-linecap:butt;stroke-linejoin:miter;stroke:rgb(77.34375%,78.125%,78.514099%);stroke-opacity:1;stroke-miterlimit:4;" d="M 3515.46875 2101.492188 L 448.554688 2101.492188 C 448.554688 2101.492188 215.234375 2081.804688 186.210938 1839.148438 C 157.1875 1596.492188 23.320313 29.5 23.320313 29.5 L 3118.046875 21.570313 C 3118.046875 21.570313 3326.71875 25.515625 3350.351563 253.875 C 3373.984375 482.234375 3515.46875 2101.492188 3515.46875 2101.492188 Z M 3515.46875 2101.492188 " transform="matrix(0.1,0,0,-0.1,0,212.2)"/>
</g>
<path style=" stroke:none;fill-rule:evenodd;fill:rgb(2.352905%,21.556091%,42.358398%);fill-opacity:1;" d="M 343.304688 10.421875 L 332.28125 124.996094 C 332.28125 124.996094 329.917969 142.714844 305.898438 142.320313 C 281.882813 141.921875 16.113281 141.535156 16.113281 141.535156 L 25.5625 31.289063 C 25.5625 31.289063 27.925781 10.027344 52.335938 10.027344 C 76.746094 10.027344 343.304688 10.421875 343.304688 10.421875 Z M 343.304688 10.421875 "/>
<path style=" stroke:none;fill-rule:evenodd;fill:rgb(100%,100%,100%);fill-opacity:1;" d="M 82.722656 73.460938 L 114.789063 73.265625 L 109.277344 121.660156 C 109.277344 121.660156 52.621094 137.59375 39.046875 104.539063 C 25.472656 71.492188 52.820313 34.3125 90.589844 36.476563 C 90.589844 36.476563 111.246094 38.246094 114.589844 39.425781 L 114.394531 59.886719 C 114.394531 59.886719 101.410156 55.164063 91.574219 55.753906 C 81.738281 56.347656 66.984375 60.28125 62.066406 81.527344 C 57.148438 102.773438 77.210938 108.28125 88.03125 104.738281 L 89.015625 92.148438 L 79.96875 92.148438 Z M 82.722656 73.460938 "/>
<path style=" stroke:none;fill-rule:evenodd;fill:rgb(100%,100%,100%);fill-opacity:1;" d="M 147.050781 56.347656 C 147.050781 56.347656 159.050781 55.558594 165.738281 58.507813 C 172.425781 61.460938 179.707031 68.148438 181.28125 78.773438 C 182.855469 89.394531 178.527344 108.28125 172.425781 113.789063 C 166.328125 119.292969 158.855469 126.578125 140.753906 125.199219 C 122.65625 123.820313 112.625 108.675781 115.574219 89.394531 C 118.523438 70.117188 129.933594 59.101563 147.050781 56.347656 Z M 153.179688 74.738281 C 155.238281 75.617188 157.082031 76.609375 158.066406 80.539063 C 159.050781 84.476563 159.246094 95.101563 156.886719 99.429688 C 154.527344 103.757813 150.394531 109.265625 142.722656 106.511719 C 135.050781 103.757813 139.179688 84.078125 140.558594 81.527344 C 141.933594 78.96875 143.585938 71.789063 153.179688 74.738281 Z M 153.179688 74.738281 "/>
<path style=" stroke:none;fill-rule:evenodd;fill:rgb(100%,100%,100%);fill-opacity:1;" d="M 214.921875 56.738281 C 214.921875 56.738281 226.921875 55.953125 233.609375 58.902344 C 240.296875 61.855469 247.578125 68.539063 249.148438 79.164063 C 250.722656 89.789063 246.394531 108.675781 240.296875 114.183594 C 234.199219 119.691406 226.722656 126.96875 208.625 125.59375 C 190.527344 124.214844 180.492188 109.066406 183.445313 89.789063 C 186.394531 70.511719 197.804688 59.492188 214.921875 56.738281 Z M 221.046875 75.128906 C 223.109375 76.011719 224.953125 76.996094 225.9375 80.9375 C 226.921875 84.871094 227.117188 95.492188 224.757813 99.820313 C 222.394531 104.148438 218.265625 109.65625 210.59375 106.902344 C 202.917969 104.148438 207.050781 84.476563 208.429688 81.921875 C 209.804688 79.363281 211.457031 72.179688 221.046875 75.128906 Z M 221.046875 75.128906 "/>
<path style=" stroke:none;fill-rule:evenodd;fill:rgb(100%,100%,100%);fill-opacity:1;" d="M 295.183594 74.246094 L 292.234375 97.855469 C 292.234375 97.855469 288.886719 108.476563 281.019531 107.296875 C 273.148438 106.117188 271.773438 94.117188 275.3125 86.445313 C 278.855469 78.773438 283.578125 71.886719 295.183594 74.246094 Z M 298.132813 57.132813 L 299.90625 38.445313 L 322.527344 38.640625 L 310.921875 123.429688 L 289.28125 123.429688 L 289.480469 119.496094 C 289.480469 119.496094 283.96875 125.394531 271.378906 125.59375 C 258.789063 125.789063 248.953125 115.164063 250.132813 97.265625 C 251.3125 79.363281 261.148438 63.230469 280.625 57.722656 C 280.625 57.722656 286.921875 56.347656 291.050781 56.738281 C 295.183594 57.132813 298.132813 57.132813 298.132813 57.132813 Z M 298.132813 57.132813 "/>
<path style=" stroke:none;fill-rule:evenodd;fill:rgb(96.09375%,68.164063%,0%);fill-opacity:1;" d="M 11.386719 200.59375 L 314.5625 200.59375 C 314.5625 200.59375 325.980469 196.65625 326.765625 186.023438 C 327.554688 175.394531 330.703125 148.621094 330.703125 148.621094 L 32.253906 149.015625 C 32.253906 149.015625 15.71875 148.226563 14.144531 166.339844 C 12.570313 184.449219 11.386719 200.59375 11.386719 200.59375 Z M 11.386719 200.59375 "/>
<path style=" stroke:none;fill-rule:evenodd;fill:rgb(2.352905%,21.556091%,42.358398%);fill-opacity:1;" d="M 297.902344 173.511719 L 296.601563 183.914063 C 296.601563 183.914063 295.128906 188.59375 291.664063 188.074219 C 288.195313 187.546875 287.589844 182.265625 289.148438 178.886719 C 290.710938 175.503906 292.789063 172.472656 297.902344 173.511719 Z M 299.203125 165.972656 L 299.984375 157.738281 L 309.949219 157.824219 L 304.835938 195.179688 L 295.304688 195.179688 L 295.390625 193.445313 C 295.390625 193.445313 292.964844 196.042969 287.417969 196.132813 C 281.871094 196.21875 277.535156 191.539063 278.054688 183.652344 C 278.578125 175.765625 282.910156 168.660156 291.488281 166.230469 C 291.488281 166.230469 294.261719 165.621094 296.082031 165.792969 C 297.902344 165.972656 299.203125 165.972656 299.203125 165.972656 Z M 299.203125 165.972656 "/>
<path style=" stroke:none;fill-rule:evenodd;fill:rgb(2.352905%,21.556091%,42.358398%);fill-opacity:1;" d="M 260.363281 166.511719 L 257.609375 194.054688 L 268.132813 194.152344 C 268.132813 194.152344 266.082031 172.757813 278.363281 174.480469 L 279.839844 165.917969 C 279.839844 165.917969 272.855469 166.414063 270.003906 170.046875 L 270.789063 166.609375 Z M 260.363281 166.511719 "/>
<path style=" stroke:none;fill-rule:evenodd;fill:rgb(2.352905%,21.556091%,42.358398%);fill-opacity:1;" d="M 246.296875 182.347656 C 246.296875 182.347656 247.578125 187.953125 243.148438 188.742188 C 238.722656 189.527344 238.625 187.363281 239.214844 185.988281 C 239.804688 184.609375 242.558594 183.132813 246.296875 182.347656 Z M 236.953125 167.292969 L 234.984375 175.164063 C 234.984375 175.164063 242.65625 172.214844 246.296875 173.101563 C 249.9375 173.988281 246.691406 176.742188 243.738281 177.429688 C 240.789063 178.117188 233.609375 180.28125 231.9375 182.644531 C 230.265625 185.003906 229.085938 191.59375 233.3125 193.5625 C 237.542969 195.527344 244.921875 193.363281 244.921875 193.363281 L 245.117188 194.347656 L 254.855469 194.152344 L 257.707031 171.332031 C 257.707031 171.332031 257.707031 166.707031 252.199219 166.214844 C 246.691406 165.722656 236.953125 167.292969 236.953125 167.292969 Z M 236.953125 167.292969 "/>
<path style=" stroke:none;fill-rule:evenodd;fill:rgb(2.352905%,21.556091%,42.358398%);fill-opacity:1;" d="M 232.332031 158.640625 L 231.640625 167.003906 C 231.640625 167.003906 223.871094 164.246094 217.082031 166.90625 C 210.296875 169.5625 210.394531 181.164063 212.953125 184.019531 C 215.511719 186.871094 223.183594 187.460938 228.003906 185.789063 L 227.804688 194.054688 C 227.804688 194.054688 207.9375 198.28125 202.722656 188.347656 C 197.511719 178.414063 200.460938 165.332031 209.214844 161.292969 C 217.96875 157.265625 225.148438 157.757813 232.332031 158.640625 Z M 232.332031 158.640625 "/>
</g>
</svg>
