<?xml version="1.0" encoding="UTF-8" standalone="no"?>
<svg
   xmlns:dc="http://purl.org/dc/elements/1.1/"
   xmlns:cc="http://creativecommons.org/ns#"
   xmlns:rdf="http://www.w3.org/1999/02/22-rdf-syntax-ns#"
   xmlns:svg="http://www.w3.org/2000/svg"
   xmlns="http://www.w3.org/2000/svg"
   xmlns:sodipodi="http://sodipodi.sourceforge.net/DTD/sodipodi-0.dtd"
   xmlns:inkscape="http://www.inkscape.org/namespaces/inkscape"
   width="116.91636"
   height="152.78078"
   viewBox="0 0 116.91636 152.78077"
   version="1.1"
   id="svg14"
   sodipodi:docname="ticket-logo.svg"
   inkscape:version="0.92.2 (5c3e80d, 2017-08-06)">
  <metadata
     id="metadata18">
    <rdf:RDF>
      <cc:Work
         rdf:about="">
        <dc:format>image/svg+xml</dc:format>
        <dc:type
           rdf:resource="http://purl.org/dc/dcmitype/StillImage" />
        <dc:title>Group</dc:title>
      </cc:Work>
    </rdf:RDF>
  </metadata>
  <sodipodi:namedview
     pagecolor="#ffffff"
     bordercolor="#666666"
     borderopacity="1"
     objecttolerance="10"
     gridtolerance="10"
     guidetolerance="10"
     inkscape:pageopacity="0"
     inkscape:pageshadow="2"
     inkscape:window-width="1600"
     inkscape:window-height="837"
     id="namedview16"
     showgrid="false"
     fit-margin-top="0"
     fit-margin-left="0"
     fit-margin-right="0"
     fit-margin-bottom="0"
     inkscape:zoom="1.4142136"
     inkscape:cx="213.76801"
     inkscape:cy="201.39854"
     inkscape:window-x="-8"
     inkscape:window-y="-8"
     inkscape:window-maximized="1"
     inkscape:current-layer="institucional/logo-ticket-pt" />
  <!-- Generator: Sketch 45.1 (43504) - http://www.bohemiancoding.com/sketch -->
  <title
     id="title2">Group</title>
  <desc
     id="desc4">Created with Sketch.</desc>
  <defs
     id="defs6" />
  <g
     id="Symbols"
     style="fill:none;fill-rule:evenodd;stroke:none;stroke-width:1"
     transform="translate(-2.184491,66.663231)">
    <g
       id="institucional/logo-ticket-pt">
      <g
         id="Group">
        <text
           xml:space="preserve"
           style="font-style:normal;font-weight:normal;font-size:12px;line-height:1.25;font-family:sans-serif;letter-spacing:0px;word-spacing:0px;fill:#000000;fill-opacity:1;stroke:none"
           x="7.0126181"
           y="83.621452"
           id="text848"><tspan
             sodipodi:role="line"
             id="tspan846"
             x="7.0126181"
             y="83.621452">Logodownload.org</tspan></text>
      </g>
    </g>
  </g>
  <ellipse
     style="opacity:1;fill:#ffffff;fill-opacity:1;fill-rule:nonzero;stroke:none;stroke-width:3.68693829;stroke-linecap:butt;stroke-linejoin:bevel;stroke-miterlimit:4;stroke-dasharray:none;stroke-opacity:1;paint-order:stroke fill markers"
     id="path821-9"
     cx="33.404152"
     cy="29.456436"
     rx="29.452435"
     ry="29.456408" />
  <path
     inkscape:connector-curvature="0"
     style="fill:#d52b1e;fill-rule:evenodd;stroke:none;stroke-width:1"
     d="m 55.787586,31.539338 h -8.92858 c 0.33835,1.93884 2.18697,2.68295 3.78798,2.68295 1.01453,0 1.91629,-0.22556 2.79574,-0.63107 l -0.24787,2.66015 c -0.99224,0.40576 -2.18697,0.56366 -3.38196,0.56366 -3.96817,0 -6.76392,-2.32206 -6.76392,-6.26767 0,-3.427075 2.50251,-5.997251 6.33535,-5.997251 4.32882,0 6.49323,2.750628 6.40326,6.989231 z m -16.143363,5.05037 c -0.180452,-0.42857 -0.45113,-1.12731 -0.676442,-1.82631 l -0.518546,-1.73609 c -0.270679,-0.92406 -0.63133,-1.30752 -1.51078,-1.30752 h -1.48797 v 4.86992 H 32.000859 V 20.672161 h 3.449626 v 8.77043 h 0.383461 l 3.26892,-4.666918 h 3.83282 l -3.855376,4.869673 h 0.203009 c 1.533067,0 1.983947,0.856892 2.367407,2.119552 l 0.65389,2.18697 c 0.22531,0.81153 0.699,1.9614 1.05939,2.63784 z m -11.047878,-2.63784 c 0.901754,0 1.645866,-0.24812 2.209525,-0.51855 l -0.315538,2.86341 c -0.721555,0.3604 -1.736345,0.54085 -2.615542,0.54085 -3.720304,0 -6.290227,-2.41228 -6.290227,-6.17744 0,-3.720054 2.525063,-6.110031 6.267671,-6.110031 1.375187,0 2.43509,0.270425 3.517042,0.766415 l -0.99198,2.660402 c -0.518546,-0.315538 -1.239848,-0.563406 -2.006516,-0.563406 -1.893734,0 -3.133835,1.239848 -3.133835,3.24662 0,1.98396 1.307518,3.31403 3.3594,3.29173 z M 17.007365,23.264893 h 3.517042 v -2.592732 h -3.517042 z m 0,13.324815 h 3.517042 V 24.775673 h -3.517042 z m 39.524841,-6.380449 v -8.026572 l 3.51704,-1.4203 v 4.238597 h 2.36717 l -0.47344,2.637846 h -1.93884 v 2.705518 c 0,2.62796 0.99603,4.47886 2.05213,5.96505 0.52438,-2.19938 0.80342,-4.49381 0.80342,-6.853628 C 62.859436,13.187706 49.671476,0 33.403418,0 20.194676,0 9.0167827,8.6941433 5.2794969,20.672161 H 16.240443 l -0.42832,3.156391 H 11.235178 V 36.589708 H 7.4923169 V 23.828552 h -3.005846 c -0.352287,1.821756 -0.539075,3.702564 -0.539075,5.627218 2.53e-4,16.268318 13.1879581,29.456017 29.4562751,29.456017 13.807875,0 25.394825,-9.501099 28.584425,-22.322079 h -3.47193 c -0.60877,-1.05965 -2.00652,-2.97619 -1.98396,-6.380449 z m -7.03518,-3.224264 c -1.48797,0 -2.43483,0.969423 -2.72807,2.254638 h 5.2985 c -0.18045,-1.420301 -1.17243,-2.254638 -2.57043,-2.254638"
     id="Combined-Shape-2"
     inkscape:export-filename="C:\Users\suitedoalex\sites\ticket-logo-14.png"
     inkscape:export-xdpi="81.477043"
     inkscape:export-ydpi="81.477043" />
  <ellipse
     style="opacity:1;fill:#ffffff;fill-opacity:1;fill-rule:nonzero;stroke:none;stroke-width:3.68693829;stroke-linecap:butt;stroke-linejoin:bevel;stroke-miterlimit:4;stroke-dasharray:none;stroke-opacity:1;paint-order:stroke fill markers"
     id="path821-9-5"
     cx="29.460331"
     cy="99.280472"
     rx="29.452435"
     ry="29.456408" />
  <path
     d="m 51.8402,101.36769 h -8.92858 c 0.33835,1.93884 2.18697,2.68295 3.78797,2.68295 1.01454,0 1.91629,-0.22556 2.79574,-0.63107 l -0.24786,2.66015 c -0.99224,0.40576 -2.18697,0.56366 -3.38196,0.56366 -3.96817,0 -6.76391,-2.32206 -6.76391,-6.26767 0,-3.42707 2.5025,-5.99725 6.33534,-5.99725 4.32882,0 6.49323,2.75063 6.40326,6.98923 z m -16.14337,5.05038 c -0.18045,-0.42858 -0.45113,-1.12732 -0.67644,-1.82632 l -0.51855,-1.73609 c -0.27068,-0.92406 -0.63133,-1.30752 -1.51078,-1.30752 h -1.48797 v 4.86993 H 28.05347 V 90.50051 h 3.44962 v 8.770427 h 0.38346 l 3.26892,-4.666907 h 3.83284 l -3.85539,4.869667 h 0.20301 c 1.53308,0 1.98395,0.856893 2.36742,2.119553 l 0.65388,2.18697 c 0.22531,0.81153 0.699,1.9614 1.0594,2.63785 z m -11.04788,-2.63785 c 0.90176,0 1.64587,-0.24812 2.20953,-0.51855 l -0.31554,2.86341 c -0.72156,0.3604 -1.73635,0.54085 -2.61554,0.54085 -3.72031,0 -6.29023,-2.41228 -6.29023,-6.17744 0,-3.72005 2.52506,-6.11003 6.26767,-6.11003 1.37519,0 2.43509,0.27043 3.51704,0.76642 l -0.99198,2.6604 c -0.51854,-0.31554 -1.23985,-0.56341 -2.00651,-0.56341 -1.89374,0 -3.13384,1.23985 -3.13384,3.24662 0,1.98396 1.30752,3.31403 3.3594,3.29173 z M 13.05997,93.09325 h 3.51704 v -2.59274 h -3.51704 z m 0,13.32482 h 3.51704 V 94.60403 h -3.51704 z m 39.52485,-6.38046 v -8.02657 l 3.51704,-1.4203 v 4.2386 h 2.36717 l -0.47344,2.63784 h -1.93884 v 2.70552 c 0,2.62796 0.99603,4.47886 2.05213,5.96506 0.52438,-2.19939 0.80342,-4.49382 0.80342,-6.853643 -2.5e-4,-16.268058 -13.18821,-29.455764 -29.45628,-29.455764 -13.20874,0 -24.38663,8.694143 -28.12392,20.672157 h 10.96095 l -0.42832,3.1564 H 7.28778 v 12.76116 H 3.54492 V 93.65691 H 0.53908 C 0.18679,95.47866 0,97.35947 0,99.284117 c 2.6e-4,16.268323 13.18796,29.456033 29.45628,29.456033 13.80788,0 25.39483,-9.50111 28.58443,-22.32208 h -3.47193 c -0.60878,-1.05965 -2.00652,-2.9762 -1.98396,-6.38046 z m -7.03518,-3.22426 c -1.48797,0 -2.43483,0.96942 -2.72807,2.254637 h 5.2985 C 47.93962,97.64769 46.94764,96.81335 45.54964,96.81335"
     id="Combined-Shape"
     inkscape:connector-curvature="0"
     style="fill:#d52b1e;fill-rule:evenodd;stroke:none;stroke-width:1"
     inkscape:export-filename="C:\Users\suitedoalex\sites\ticket-logo-7.png"
     inkscape:export-xdpi="164.21996"
     inkscape:export-ydpi="164.21996" />
  <path
     d="m 65.59022,95.92503 v -3.00367 h 1.10385 v 3.18255 c 0,1.42203 -0.95453,2.12855 -2.34701,2.12855 -1.39222,0 -2.34701,-0.70652 -2.34701,-2.12855 v -3.18255 h 1.10386 v 3.00367 c 0,0.8453 0.40787,1.34261 1.24315,1.34261 0.83554,0 1.24316,-0.49731 1.24316,-1.34261 m 6.36602,-2.03901 c 0.27834,-0.7258 1.02443,-1.05425 1.80009,-1.05425 1.28299,0 2.08846,0.71628 2.08846,2.04887 v 3.26197 h -1.10386 v -3.06278 c 0,-0.78594 -0.35801,-1.28325 -1.1239,-1.28325 -0.76563,0 -1.13367,0.45773 -1.13367,1.29301 v 3.05302 H 71.3993 v -3.05302 c 0,-0.83528 -0.36804,-1.29301 -1.13367,-1.29301 -0.76589,0 -1.11388,0.5171 -1.11388,1.28325 v 3.06278 h -1.10411 v -3.26197 c 0,-1.33259 0.80572,-2.04887 2.07869,-2.04887 0.77565,0 1.5017,0.32845 1.79007,1.05425 z m 7.79887,-0.0893 c -1.02444,0 -1.69061,0.78567 -1.69061,1.74021 0,0.98486 0.64638,1.7307 1.69061,1.7307 1.02418,0 1.70063,-0.70601 1.70063,-1.7307 0,-1.02418 -0.67645,-1.74021 -1.70063,-1.74021 z m 2.87413,4.34603 h -1.08406 v -0.83529 c -0.43743,0.56671 -1.15346,0.91496 -1.97898,0.91496 -1.49193,0 -2.65542,-1.04449 -2.65542,-2.66519 0,-1.5914 1.1933,-2.72533 2.85409,-2.72533 1.75049,0 2.86437,1.09409 2.86437,2.77493 z m 8.415208,-4.2567 c 0.2786,-0.72579 1.02444,-1.05425 1.80009,-1.05425 1.28299,0 2.08872,0.71629 2.08872,2.04888 v 3.26196 h -1.10412 v -3.06278 c 0,-0.78593 -0.35801,-1.28325 -1.12364,-1.28325 -0.76615,0 -1.13393,0.45774 -1.13393,1.29302 v 3.05301 h -1.08406 v -3.05301 c 0,-0.83528 -0.36804,-1.29302 -1.13367,-1.29302 -0.76589,0 -1.11388,0.51711 -1.11388,1.28325 v 3.06278 h -1.10385 v -3.26196 c 0,-1.33259 0.80546,-2.04888 2.07843,-2.04888 0.77566,0 1.50171,0.32846 1.79033,1.05425 z m 7.798874,-0.0893 c -1.024448,0 -1.690874,0.78568 -1.690874,1.74021 0,0.98486 0.646636,1.7307 1.690874,1.7307 1.02418,0 1.700628,-0.706 1.700628,-1.7307 0,-1.02418 -0.676448,-1.74021 -1.700628,-1.74021 z m 2.874128,4.34603 h -1.08406 V 97.3075 c -0.43743,0.56671 -1.153458,0.91495 -1.978968,0.91495 -1.491944,0 -2.655424,-1.04448 -2.655424,-2.66518 0,-1.5914 1.19329,-2.72533 2.854094,-2.72533 1.750488,0 2.864358,1.09409 2.864358,2.77493 z M 105.7763,93.926 c -0.0594,-0.0198 -0.30815,-0.11925 -0.59652,-0.11925 -0.7957,0 -1.00439,0.49731 -1.00439,1.33259 v 3.00342 h -1.10411 v -3.20234 c 0,-1.60117 0.89516,-2.10851 2.07843,-2.10851 0.37806,0 0.78568,0.12928 0.86561,0.14933 z m 3.35217,-1.09403 c 0.56697,0 1.03421,0.11951 1.48192,0.34799 l -0.36804,0.87537 c -0.25855,-0.15909 -0.60654,-0.28836 -0.9846,-0.28836 -0.97458,0 -1.67082,0.67644 -1.67082,1.76025 0,1.00465 0.59678,1.79007 1.74021,1.77028 0.42792,-0.01 0.76614,-0.12927 1.01467,-0.27859 l -0.0797,0.9846 c -0.32794,0.14932 -0.74584,0.22899 -1.15346,0.22899 -1.61119,0 -2.68523,-1.06427 -2.68523,-2.70528 0,-1.61119 1.08381,-2.69525 2.70502,-2.69525 m 4.91379,0.96478 c -1.02444,0 -1.69061,0.78568 -1.69061,1.74021 0,0.98486 0.64638,1.7307 1.69061,1.7307 1.02418,0 1.70063,-0.706 1.70063,-1.7307 0,-1.02418 -0.67645,-1.74021 -1.70063,-1.74021 z m 2.87413,4.34603 H 115.8323 V 97.3075 c -0.43743,0.56671 -1.15346,0.91495 -1.97897,0.91495 -1.49194,0 -2.65542,-1.04448 -2.65542,-2.66518 0,-1.5914 1.19329,-2.72533 2.85409,-2.72533 1.75049,0 2.86436,1.09409 2.86436,2.77493 z m -53.23565,8.5441 c -1.03421,0 -1.54154,-0.63662 -1.54154,-1.58112 v -5.440123 h 4.82355 l -0.17914,0.994373 h -3.45086 v 2.0386 h 3.09285 l -0.16911,0.95479 h -2.92374 v 1.25317 c 0,0.62685 0.27834,0.78594 0.6564,0.78594 h 2.91397 l -0.17913,0.99437 z m 6.77384,-4.34608 c -1.04423,0 -1.69086,0.73582 -1.69086,1.73044 0,0.96456 0.66642,1.74047 1.69086,1.74047 1.02418,0 1.70063,-0.71603 1.70063,-1.74047 0,-1.02444 -0.67645,-1.73044 -1.70063,-1.73044 z m 2.82428,1.56133 c 0,1.76051 -1.11388,2.87439 -2.86412,2.87439 -1.62095,0 -2.80448,-1.13392 -2.80448,-2.70528 0,-1.63098 1.14369,-2.69526 2.68523,-2.69526 0.85507,0 1.5215,0.35828 1.87951,0.83554 v -2.545933 h 1.10386 z m 2.31866,-0.4078 h 2.99339 c -0.10923,-0.80546 -0.64638,-1.27296 -1.44208,-1.27296 -0.81549,0 -1.3822,0.50733 -1.55131,1.27296 m 1.53152,-2.11827 c 1.74046,0 2.66544,1.1933 2.65542,2.93402 h -4.18694 c 0.0897,1.10386 0.94476,1.58112 1.84969,1.58112 0.43769,0 0.81549,-0.0894 1.16374,-0.28836 l -0.0696,0.935 c -0.34799,0.15909 -0.80572,0.23876 -1.30278,0.23876 -1.67082,0 -2.83455,-1.08407 -2.83455,-2.74512 0,-1.54154 1.1239,-2.65542 2.72507,-2.65542 m 4.78479,2.30725 v 3.00367 h -1.10411 v -3.18255 c 0,-1.42203 0.95479,-2.11827 2.347268,-2.11827 1.39247,0 2.34726,0.69624 2.34726,2.11827 v 3.18255 h -1.10411 v -3.00367 c 0,-0.8453 -0.40787,-1.34262 -1.24315,-1.34262 -0.835288,0 -1.243158,0.49732 -1.243158,1.34262 m 7.648798,-1.21326 c -0.0594,-0.0198 -0.30815,-0.11925 -0.59651,-0.11925 -0.7957,0 -1.0044,0.49731 -1.0044,1.33259 v 3.00341 h -1.10408 v -3.20234 c 0,-1.60116 0.89516,-2.1085 2.07844,-2.1085 0.37806,0 0.78567,0.12927 0.8656,0.14932 z m 1.84047,1.02428 h 2.99339 c -0.10923,-0.80546 -0.64638,-1.27296 -1.44208,-1.27296 -0.81549,0 -1.38219,0.50733 -1.55131,1.27296 m 1.53152,-2.11827 c 1.74047,0 2.66545,1.1933 2.65542,2.93402 h -4.18694 c 0.0897,1.10386 0.94477,1.58112 1.8497,1.58112 0.43769,0 0.81549,-0.0894 1.16374,-0.28836 l -0.0697,0.935 c -0.34799,0.15909 -0.80573,0.23876 -1.30278,0.23876 -1.67082,0 -2.83456,-1.08407 -2.83456,-2.74512 0,-1.54154 1.1239,-2.65542 2.72507,-2.65542 m 6.247034,0.96474 c -1.044238,0 -1.690878,0.73582 -1.690878,1.73044 0,0.96456 0.66643,1.74047 1.690878,1.74047 1.024178,0 1.700628,-0.71603 1.700628,-1.74047 0,-1.02444 -0.67645,-1.73044 -1.700628,-1.73044 z m 2.824268,1.56133 c 0,1.76051 -1.11388,2.87439 -2.864108,2.87439 -1.621228,0 -2.804494,-1.13392 -2.804494,-2.70528 0,-1.63098 1.143686,-2.69526 2.685244,-2.69526 0.85507,0 1.521488,0.35828 1.879498,0.83554 v -2.545933 h 1.10386 z"
     id="path9"
     inkscape:connector-curvature="0"
     style="fill:#162056;fill-rule:evenodd;stroke:none;stroke-width:1"
     inkscape:export-filename="C:\Users\suitedoalex\sites\ticket-logo-7.png"
     inkscape:export-xdpi="164.21996"
     inkscape:export-ydpi="164.21996" />
</svg>
