<svg xmlns="http://www.w3.org/2000/svg" xmlns:xlink="http://www.w3.org/1999/xlink" width="600" zoomAndPan="magnify" viewBox="0 0 450 74.999997" height="100" preserveAspectRatio="xMidYMid meet" version="1.0"><defs><clipPath id="1704377fbd"><path d="M 202.5 56.25 L 343.601562 56.25 L 343.601562 75 L 202.5 75 Z M 202.5 56.25 " clip-rule="nonzero"/></clipPath><clipPath id="bac51fda4f"><path d="M 92.140625 0 L 396.640625 0 L 396.640625 75 L 92.140625 75 Z M 92.140625 0 " clip-rule="nonzero"/></clipPath></defs><g clip-path="url(#1704377fbd)"><path fill="#ffffff" d="M 202.5 56.25 L 343.636719 56.25 L 343.636719 75 L 202.5 75 Z M 202.5 56.25 " fill-opacity="1" fill-rule="nonzero"/></g><path fill="#941f28" d="M 163.300781 12.101562 L 156.664062 12.203125 C 153.890625 29.015625 150.570312 44.097656 145.769531 54.410156 C 141.023438 44.039062 137.671875 29.230469 134.964844 12.375 L 126.785156 12.136719 C 128.574219 29.027344 132.914062 45.710938 139.585938 62.203125 L 151.058594 62.035156 C 154.816406 53.449219 158.070312 43.054688 160.199219 32.4375 C 162.28125 42.175781 164.875 52.523438 168.988281 62.261719 L 180.324219 62.386719 C 187.050781 47.113281 190.824219 29.761719 193.496094 11.652344 L 185 11.855469 C 182.828125 27.46875 179.871094 42.199219 174.457031 54.148438 C 169.101562 41.066406 165.804688 26.8125 163.300781 12.101562 Z M 297.785156 47.9375 C 296.628906 37.273438 300.367188 32.097656 311.058594 32.097656 C 316.980469 32.097656 315.847656 30.085938 315.746094 44.265625 C 315.632812 60.09375 298.847656 57.617188 297.785156 47.9375 Z M 315.089844 61.019531 C 326.710938 54.058594 322.710938 39.847656 323.640625 26.992188 C 323.664062 24.992188 323.878906 24.992188 321.988281 24.992188 C 318.375 24.992188 308.363281 24.777344 305.214844 25.285156 C 285.722656 28.460938 284.453125 54.894531 297.195312 60.984375 C 301.816406 63.199219 310.832031 63.558594 315.089844 61.019531 Z M 315.089844 61.019531 " fill-opacity="1" fill-rule="evenodd"/><path fill="#941f28" d="M 261.949219 41.226562 C 261.632812 39.917969 262.085938 37.136719 262.558594 36.050781 C 264.429688 31.769531 272.460938 30.605469 275.515625 33.160156 C 277.644531 34.933594 277.972656 41.214844 270.996094 41.261719 Z M 253.421875 39.710938 C 253.421875 42.277344 253.09375 51.078125 254.132812 53.347656 C 258.980469 63.796875 270.410156 64.746094 282.121094 60.613281 L 282.152344 53.8125 C 280.21875 53.722656 263.875 59.921875 261.902344 49.9375 C 260.882812 44.75 262.164062 47.6875 274.167969 46.761719 C 291.382812 45.417969 288.304688 19.265625 264.722656 25.535156 C 262.253906 26.203125 261.097656 26.8125 259.058594 28.28125 C 255.574219 30.777344 253.421875 35.339844 253.421875 39.714844 Z M 219.488281 30.628906 C 219.5 33.375 219.308594 32.605469 227.269531 32.605469 C 230.269531 32.605469 234.449219 32.371094 237.304688 32.664062 C 237.191406 36.246094 221.957031 53.054688 219.296875 56.058594 C 218.003906 57.460938 218.445312 59.085938 218.480469 62.101562 C 220.246094 62.710938 242.160156 62.386719 246.625 62.375 C 248.664062 62.375 248.199219 62.351562 248.1875 56.746094 C 248.1875 54.953125 247.835938 55.222656 246.171875 55.234375 L 230.667969 55.222656 C 230.667969 55.121094 246.183594 34.324219 247.089844 32.234375 C 247.859375 30.460938 247.621094 27.75 247.519531 25.480469 L 220.644531 25.378906 C 218.886719 25.46875 219.511719 26.371094 219.488281 30.628906 Z M 197.890625 27.683594 L 197.933594 31.769531 C 199.679688 32.03125 201.253906 31.90625 203.144531 31.929688 C 203.394531 32.3125 203.316406 32.222656 203.664062 32.449219 L 203.746094 61.832031 L 210.925781 61.910156 L 210.9375 30.179688 C 210.9375 24.675781 212.566406 25.851562 202.453125 25.851562 C 197.246094 25.851562 197.890625 25.410156 197.890625 27.679688 Z M 197.890625 27.683594 " fill-opacity="1" fill-rule="evenodd"/><path fill="#ee1d23" d="M 327.910156 62.046875 C 329.089844 62.691406 353.855469 62.171875 359.554688 62.285156 C 362.171875 62.339844 362.148438 62.578125 361.863281 56.273438 C 361.796875 54.558594 361.117188 55.097656 356.824219 55.097656 L 329.722656 55.109375 C 327.175781 55.097656 327.628906 54.660156 327.605469 59.019531 C 327.59375 60.316406 327.390625 61.277344 327.910156 62.046875 Z M 327.910156 62.046875 " fill-opacity="1" fill-rule="evenodd"/><path fill="#941f28" d="M 203.734375 18.644531 L 210.925781 18.554688 L 210.859375 12.476562 C 209.679688 12.25 208.433594 12.363281 207.234375 12.363281 C 203.191406 12.339844 203.757812 11.324219 203.734375 18.644531 Z M 203.734375 18.644531 " fill-opacity="1" fill-rule="evenodd"/><g clip-path="url(#bac51fda4f)"><path stroke-linecap="butt" transform="matrix(0.00727457, 0, 0, 0.00725599, 92.149828, -39.601492)" fill="none" stroke-linejoin="miter" d="M 1.419792 1.605331 L 41853.65011 1.605331 L 41853.65011 21187.778382 L 1.419792 21187.778382 Z M 1.419792 1.605331 " stroke="#373435" stroke-width="3.29" stroke-opacity="1" stroke-miterlimit="22.926001"/></g></svg>